<svg width="33" height="33" viewBox="0 0 33 33" fill="none" xmlns="http://www.w3.org/2000/svg">
<path d="M5.01701 18.1805C3.8962 16.2922 3.50335 14.0597 3.91224 11.9022C4.32112 9.74474 5.50361 7.81077 7.23761 6.46352C8.97161 5.11627 11.1378 4.44844 13.3294 4.58544C15.521 4.72245 17.5872 5.65487 19.1399 7.20758C20.6926 8.7603 21.6251 10.8265 21.7621 13.0181C21.8991 15.2097 21.2312 17.3759 19.884 19.1099C18.5367 20.8439 16.6028 22.0264 14.4453 22.4353C12.2878 22.8441 10.0553 22.4513 8.16701 21.3305L5.05451 22.218C4.92627 22.254 4.79073 22.2553 4.66185 22.2216C4.53297 22.1879 4.41538 22.1205 4.32118 22.0263C4.22699 21.9321 4.15958 21.8145 4.12589 21.6856C4.0922 21.5568 4.09345 21.4212 4.12951 21.293L5.01701 18.1805Z" stroke="black" stroke-width="1.5" stroke-linecap="round" stroke-linejoin="round"/>
<path d="M12.267 22.5805C12.7076 23.8365 13.4216 24.9791 14.3576 25.9255C15.2935 26.8719 16.4281 27.5987 17.6791 28.0532C18.9302 28.5077 20.2666 28.6786 21.5918 28.5536C22.9171 28.4286 24.1979 28.0109 25.342 27.3305V27.3305L28.4545 28.218C28.5827 28.254 28.7183 28.2553 28.8472 28.2216C28.976 28.1879 29.0936 28.1205 29.1878 28.0263C29.282 27.9321 29.3494 27.8145 29.3831 27.6856C29.4168 27.5567 29.4156 27.4212 29.3795 27.293L28.492 24.1805C29.2843 22.8505 29.7197 21.3384 29.7559 19.7907C29.7921 18.243 29.4279 16.7122 28.6986 15.3467C27.9692 13.9811 26.8996 12.8271 25.5932 11.9964C24.2868 11.1658 22.788 10.6866 21.242 10.6055" stroke="black" stroke-width="1.5" stroke-linecap="round" stroke-linejoin="round"/>
</svg>
