<svg width="43" height="43" viewBox="0 0 43 43" fill="none" xmlns="http://www.w3.org/2000/svg">
<path d="M21.4286 37.5C30.3046 37.5 37.5 30.3046 37.5 21.4286C37.5 12.5526 30.3046 5.35718 21.4286 5.35718C12.5526 5.35718 5.35718 12.5526 5.35718 21.4286C5.35718 30.3046 12.5526 37.5 21.4286 37.5Z" stroke="#2F2E2E" stroke-width="2" stroke-linecap="round" stroke-linejoin="round"/>
<path d="M15.4018 20.0894C16.5113 20.0894 17.4107 19.19 17.4107 18.0805C17.4107 16.971 16.5113 16.0715 15.4018 16.0715C14.2923 16.0715 13.3928 16.971 13.3928 18.0805C13.3928 19.19 14.2923 20.0894 15.4018 20.0894Z" fill="#2F2E2E"/>
<path d="M27.4553 20.0894C28.5648 20.0894 29.4643 19.19 29.4643 18.0805C29.4643 16.971 28.5648 16.0715 27.4553 16.0715C26.3458 16.0715 25.4464 16.971 25.4464 18.0805C25.4464 19.19 26.3458 20.0894 27.4553 20.0894Z" fill="#2F2E2E"/>
<path d="M28.3928 25.4465C27.6848 26.6663 26.6689 27.6787 25.4467 28.3825C24.2245 29.0862 22.8389 29.4566 21.4285 29.4566C20.0182 29.4566 18.6326 29.0862 17.4104 28.3825C16.1882 27.6787 15.1722 26.6663 14.4642 25.4465" stroke="#2F2E2E" stroke-width="2" stroke-linecap="round" stroke-linejoin="round"/>
</svg>
