<svg width="43" height="43" viewBox="0 0 43 43" fill="none" xmlns="http://www.w3.org/2000/svg">
<path d="M10.7143 36.1605C10.3591 36.1605 10.0185 36.0194 9.76731 35.7682C9.51614 35.517 9.37504 35.1764 9.37504 34.8212V27.6727C8.64029 28.0232 7.82598 28.1734 7.01455 28.108C6.32748 28.0575 5.65999 27.8562 5.05958 27.5184C4.45917 27.1806 3.94059 26.7146 3.54076 26.1536C3.14093 25.5926 2.86968 24.9503 2.74631 24.2725C2.62294 23.5948 2.65048 22.8981 2.82697 22.2322C3.00347 21.5663 3.32458 20.9474 3.76745 20.4197C4.21032 19.892 4.76406 19.4684 5.38927 19.1791C6.01448 18.8897 6.69578 18.7418 7.38468 18.7457C8.07359 18.7496 8.75316 18.9053 9.37504 19.2018V12.0533C9.37504 11.6981 9.51614 11.3575 9.76731 11.1063C10.0185 10.8551 10.3591 10.714 10.7143 10.714H18.5324C18.1819 9.97928 18.0318 9.16497 18.0971 8.35354C18.1476 7.66647 18.3489 6.99898 18.6867 6.39857C19.0245 5.79816 19.4905 5.27958 20.0515 4.87975C20.6126 4.47992 21.2548 4.20867 21.9326 4.0853C22.6104 3.96193 23.307 3.98947 23.9729 4.16596C24.6389 4.34246 25.2577 4.66357 25.7854 5.10644C26.3131 5.54931 26.7367 6.10305 27.0261 6.72826C27.3154 7.35347 27.4634 8.03477 27.4595 8.72367C27.4555 9.41258 27.2998 10.0922 27.0034 10.714H34.8215C35.1767 10.714 35.5173 10.8551 35.7685 11.1063C36.0197 11.3575 36.1608 11.6981 36.1608 12.0533V19.2018C35.426 18.8513 34.6117 18.7011 33.8003 18.7665C33.1132 18.817 32.4457 19.0183 31.8453 19.3561C31.2449 19.6939 30.7263 20.1599 30.3265 20.7209C29.9266 21.2819 29.6554 21.9242 29.532 22.6019C29.4087 23.2797 29.4362 23.9764 29.6127 24.6423C29.7892 25.3082 30.1103 25.927 30.5532 26.4547C30.996 26.9825 31.5498 27.4061 32.175 27.6954C32.8002 27.9847 33.4815 28.1327 34.1704 28.1288C34.8593 28.1249 35.5389 27.9692 36.1608 27.6727V34.8212C36.1608 35.1764 36.0197 35.517 35.7685 35.7682C35.5173 36.0194 35.1767 36.1605 34.8215 36.1605H10.7143Z" stroke="#2F2E2E" stroke-width="2" stroke-linecap="round" stroke-linejoin="round"/>
</svg>
