<svg width="43" height="43" viewBox="0 0 43 43" fill="none" xmlns="http://www.w3.org/2000/svg">
<path d="M14.7322 38.8396H28.125" stroke="#2F2E2E" stroke-width="2" stroke-linecap="round" stroke-linejoin="round"/>
<path d="M13.1752 27.9577C11.5807 26.7179 10.2894 25.1315 9.39893 23.3187C8.50847 21.5059 8.04228 19.5142 8.03567 17.4945C8.00218 10.2289 13.8448 4.18533 21.1104 4.01792C23.9224 3.95126 26.6839 4.77161 29.0034 6.36262C31.323 7.95363 33.0827 10.2345 34.0331 12.8818C34.9834 15.5292 35.0762 18.4085 34.2982 21.1115C33.5202 23.8145 31.9109 26.2039 29.6986 27.9409C29.2099 28.3187 28.8141 28.8032 28.5413 29.3574C28.2686 29.9116 28.1261 30.5208 28.1249 31.1385V32.1429C28.1249 32.4981 27.9838 32.8388 27.7327 33.0899C27.4815 33.3411 27.1409 33.4822 26.7857 33.4822H16.0714C15.7162 33.4822 15.3755 33.3411 15.1244 33.0899C14.8732 32.8388 14.7321 32.4981 14.7321 32.1429V31.1385C14.7279 30.5254 14.5858 29.9212 14.3163 29.3706C14.0467 28.8199 13.6567 28.337 13.1752 27.9577V27.9577Z" stroke="#2F2E2E" stroke-width="2" stroke-linecap="round" stroke-linejoin="round"/>
<path d="M22.7847 9.50928C24.4216 9.78676 25.932 10.5655 27.1075 11.738C28.2829 12.9104 29.0655 14.4189 29.3472 16.055" stroke="#2F2E2E" stroke-width="2" stroke-linecap="round" stroke-linejoin="round"/>
</svg>
