<svg width="43" height="43" viewBox="0 0 43 43" fill="none" xmlns="http://www.w3.org/2000/svg">
<path d="M33.4822 9.375H9.37503C7.15603 9.375 5.35718 11.1739 5.35718 13.3929V32.1429C5.35718 34.3619 7.15603 36.1607 9.37503 36.1607H33.4822C35.7012 36.1607 37.5 34.3619 37.5 32.1429V13.3929C37.5 11.1739 35.7012 9.375 33.4822 9.375Z" stroke="#2F2E2E" stroke-width="2" stroke-linecap="round" stroke-linejoin="round"/>
<path d="M27.4554 24.1072H15.4018C13.5526 24.1072 12.0536 25.6062 12.0536 27.4554C12.0536 29.3046 13.5526 30.8036 15.4018 30.8036H27.4554C29.3045 30.8036 30.8036 29.3046 30.8036 27.4554C30.8036 25.6062 29.3045 24.1072 27.4554 24.1072Z" stroke="#2F2E2E" stroke-width="2" stroke-linecap="round" stroke-linejoin="round"/>
<path d="M24.7769 24.1072V30.8036" stroke="#2F2E2E" stroke-width="2" stroke-linecap="round" stroke-linejoin="round"/>
<path d="M18.0803 24.1072V30.8036" stroke="#2F2E2E" stroke-width="2" stroke-linecap="round" stroke-linejoin="round"/>
<path d="M21.4286 9.37489V2.67847" stroke="#2F2E2E" stroke-width="2" stroke-linecap="round" stroke-linejoin="round"/>
<path d="M14.0625 20.0891C15.172 20.0891 16.0714 19.1897 16.0714 18.0802C16.0714 16.9707 15.172 16.0713 14.0625 16.0713C12.953 16.0713 12.0536 16.9707 12.0536 18.0802C12.0536 19.1897 12.953 20.0891 14.0625 20.0891Z" fill="#2F2E2E"/>
<path d="M28.7947 20.0891C29.9042 20.0891 30.8036 19.1897 30.8036 18.0802C30.8036 16.9707 29.9042 16.0713 28.7947 16.0713C27.6852 16.0713 26.7858 16.9707 26.7858 18.0802C26.7858 19.1897 27.6852 20.0891 28.7947 20.0891Z" fill="#2F2E2E"/>
</svg>
