<svg width="43" height="43" viewBox="0 0 43 43" fill="none" xmlns="http://www.w3.org/2000/svg">
<path d="M5.35718 10.7146V24.1075" stroke="#2F2E2E" stroke-width="2" stroke-linecap="round" stroke-linejoin="round"/>
<path d="M9.07361 36.1605C10.4137 34.1051 12.2453 32.4166 14.4027 31.2478C16.56 30.0789 18.9749 29.4668 21.4285 29.4668C23.8821 29.4668 26.297 30.0789 28.4544 31.2478C30.6117 32.4166 32.4434 34.1051 33.7834 36.1605" stroke="#2F2E2E" stroke-width="2" stroke-linecap="round" stroke-linejoin="round"/>
<path d="M37.5 10.7146L21.4286 16.0717L5.35718 10.7146L21.4286 5.35742L37.5 10.7146Z" stroke="#2F2E2E" stroke-width="2" stroke-linecap="round" stroke-linejoin="round"/>
<path d="M28.3427 13.7612C29.5712 15.1028 30.3829 16.7729 30.6788 18.5678C30.9746 20.3626 30.7419 22.2048 30.009 23.8698C29.2761 25.5347 28.0746 26.9505 26.5511 27.9444C25.0275 28.9384 23.2477 29.4676 21.4286 29.4676C19.6095 29.4676 17.8297 28.9384 16.3061 27.9444C14.7826 26.9505 13.5811 25.5347 12.8482 23.8698C12.1153 22.2048 11.8826 20.3626 12.1784 18.5678C12.4743 16.7729 13.286 15.1028 14.5145 13.7612" stroke="#2F2E2E" stroke-width="2" stroke-linecap="round" stroke-linejoin="round"/>
</svg>
