<svg width="32" height="32" viewBox="0 0 32 32" fill="none" xmlns="http://www.w3.org/2000/svg">
<path d="M12 9C12 7.93913 12.4214 6.92172 13.1716 6.17157C13.9217 5.42143 14.9391 5 16 5C17.0609 5 18.0783 5.42143 18.8284 6.17157C19.5786 6.92172 20 7.93913 20 9L2.4 22.2C2.23209 22.3259 2.10807 22.5015 2.04549 22.7018C1.98291 22.9022 1.98495 23.1171 2.05132 23.3162C2.11769 23.5153 2.24502 23.6885 2.41529 23.8112C2.58556 23.934 2.79012 24 3 24H29C29.2099 24 29.4144 23.934 29.5847 23.8112C29.755 23.6885 29.8823 23.5153 29.9487 23.3162C30.0151 23.1171 30.0171 22.9022 29.9545 22.7018C29.8919 22.5015 29.7679 22.3259 29.6 22.2L16 12" stroke="white" stroke-linecap="round" stroke-linejoin="round"/>
</svg>
