<svg width="21" height="24" viewBox="0 0 21 24" fill="none" xmlns="http://www.w3.org/2000/svg">
<path d="M4.875 8V5.75C4.875 4.25816 5.46763 2.82742 6.52252 1.77252C7.57742 0.717632 9.00816 0.125 10.5 0.125C11.9918 0.125 13.4226 0.717632 14.4775 1.77252C15.5324 2.82742 16.125 4.25816 16.125 5.75V8H19.5C19.7984 8 20.0845 8.11853 20.2955 8.3295C20.5065 8.54048 20.625 8.82663 20.625 9.125V22.625C20.625 22.9234 20.5065 23.2095 20.2955 23.4205C20.0845 23.6315 19.7984 23.75 19.5 23.75H1.5C1.20163 23.75 0.915483 23.6315 0.704505 23.4205C0.493526 23.2095 0.375 22.9234 0.375 22.625V9.125C0.375 8.82663 0.493526 8.54048 0.704505 8.3295C0.915483 8.11853 1.20163 8 1.5 8H4.875ZM4.875 10.25H2.625V21.5H18.375V10.25H16.125V12.5H13.875V10.25H7.125V12.5H4.875V10.25ZM7.125 8H13.875V5.75C13.875 4.85489 13.5194 3.99645 12.8865 3.36351C12.2536 2.73058 11.3951 2.375 10.5 2.375C9.60489 2.375 8.74645 2.73058 8.11351 3.36351C7.48058 3.99645 7.125 4.85489 7.125 5.75V8Z" fill="#131212"/>
</svg>
