<svg width="32" height="32" viewBox="0 0 32 32" fill="none" xmlns="http://www.w3.org/2000/svg">
<path d="M21.1001 23.5874L21.5876 26.5374" stroke="white" stroke-width="2" stroke-linecap="round" stroke-linejoin="round"/>
<path d="M16 24V28" stroke="white" stroke-width="2" stroke-linecap="round" stroke-linejoin="round"/>
<path d="M10.9001 23.5874L10.4126 26.5374" stroke="white" stroke-width="2" stroke-linecap="round" stroke-linejoin="round"/>
<path d="M22.125 8.6001C26.7875 9.5751 30 11.6251 30 14.0001C30 17.3126 23.7375 20.0001 16 20.0001C8.2625 20.0001 2 17.3126 2 14.0001C2 11.6251 5.2375 9.5626 9.925 8.6001" stroke="white" stroke-width="2" stroke-linecap="round" stroke-linejoin="round"/>
<path d="M9.00002 12.4876C8.99802 12.939 9.15075 13.3776 9.43278 13.7301C9.71482 14.0826 10.1091 14.3279 10.55 14.4251C12.3387 14.8248 14.1673 15.0178 16 15.0001C17.8327 15.0178 19.6614 14.8248 21.45 14.4251C21.8909 14.3279 22.2852 14.0826 22.5673 13.7301C22.8493 13.3776 23.002 12.939 23 12.4876V12.0001C23.0001 11.0734 22.8162 10.1559 22.4589 9.30091C22.1017 8.44588 21.5782 7.67028 20.9189 7.01912C20.2596 6.36795 19.4776 5.85417 18.6182 5.50758C17.7588 5.16098 16.8391 4.98848 15.9125 5.00006C12.0625 5.05006 9.00002 8.26256 9.00002 12.1001V12.4876Z" stroke="white" stroke-width="2" stroke-linecap="round" stroke-linejoin="round"/>
</svg>
