<svg width="32" height="32" viewBox="0 0 32 32" fill="none" xmlns="http://www.w3.org/2000/svg">
<path d="M25 7H7C5.34315 7 4 8.34315 4 10V24C4 25.6569 5.34315 27 7 27H25C26.6569 27 28 25.6569 28 24V10C28 8.34315 26.6569 7 25 7Z" stroke="black" stroke-width="1.5" stroke-linecap="round" stroke-linejoin="round"/>
<path d="M20.5 18H11.5C10.1193 18 9 19.1193 9 20.5C9 21.8807 10.1193 23 11.5 23H20.5C21.8807 23 23 21.8807 23 20.5C23 19.1193 21.8807 18 20.5 18Z" stroke="black" stroke-width="1.5" stroke-linecap="round" stroke-linejoin="round"/>
<path d="M18.5 18V23" stroke="black" stroke-width="1.5" stroke-linecap="round" stroke-linejoin="round"/>
<path d="M13.5 18V23" stroke="black" stroke-width="1.5" stroke-linecap="round" stroke-linejoin="round"/>
<path d="M16 7V2" stroke="black" stroke-width="1.5" stroke-linecap="round" stroke-linejoin="round"/>
<path d="M10.5 14.75C11.1904 14.75 11.75 14.1904 11.75 13.5C11.75 12.8096 11.1904 12.25 10.5 12.25C9.80964 12.25 9.25 12.8096 9.25 13.5C9.25 14.1904 9.80964 14.75 10.5 14.75Z" fill="black"/>
<path d="M21.5 14.75C22.1904 14.75 22.75 14.1904 22.75 13.5C22.75 12.8096 22.1904 12.25 21.5 12.25C20.8096 12.25 20.25 12.8096 20.25 13.5C20.25 14.1904 20.8096 14.75 21.5 14.75Z" fill="black"/>
</svg>
