<svg width="103" height="90" viewBox="0 0 103 90" fill="none" xmlns="http://www.w3.org/2000/svg">
<circle cx="51" cy="45" r="45" fill="#ED1C24"/>
<path d="M26.5048 19.349V26H27.8368V23.705H28.8628C29.6818 23.705 30.2938 23.498 30.6988 23.093C31.1038 22.679 31.3108 22.166 31.3108 21.545C31.3108 20.933 31.1128 20.411 30.7168 19.988C30.3298 19.565 29.7448 19.349 28.9618 19.349H26.5048ZM27.8368 22.499V20.582H28.9798C29.5828 20.582 29.9518 20.996 29.9518 21.527C29.9518 22.067 29.5918 22.499 28.9078 22.499H27.8368ZM37.3378 26L35.7268 23.408C36.6268 23.084 37.0768 22.319 37.0768 21.455C37.0768 20.861 36.8788 20.366 36.4918 19.961C36.1048 19.556 35.5378 19.349 34.7998 19.349H32.2528V26H33.5848V23.579H34.3768L35.7808 26H37.3378ZM34.7908 20.582C35.3668 20.582 35.7088 20.969 35.7088 21.473C35.7088 21.986 35.3668 22.382 34.6738 22.382H33.5848V20.582H34.7908ZM42.8351 26V24.758H39.6671V23.264H42.6011V22.022H39.6671V20.591H42.8351V19.349H38.3261V26H42.8351ZM46.0096 26.108C46.7386 26.108 47.3236 25.919 47.7736 25.541C48.2236 25.163 48.4486 24.677 48.4486 24.083C48.4486 23.345 48.0706 22.796 47.3146 22.427C47.1436 22.346 46.8736 22.229 46.5046 22.076L45.8476 21.788C45.4876 21.608 45.3076 21.392 45.3076 21.131C45.3076 20.744 45.6316 20.492 46.1626 20.492C46.6576 20.492 47.2516 20.717 47.6206 21.113L48.3316 20.141C47.7376 19.538 47.0086 19.241 46.1446 19.241C45.4786 19.241 44.9296 19.43 44.5066 19.799C44.0836 20.168 43.8766 20.627 43.8766 21.185C43.8766 21.887 44.2276 22.436 44.9296 22.841C45.1096 22.94 45.3706 23.066 45.7126 23.201C46.0636 23.336 46.2796 23.417 46.3696 23.462C46.7746 23.651 46.9726 23.885 46.9726 24.155C46.9726 24.578 46.5676 24.866 46.0186 24.866C45.3346 24.866 44.6866 24.542 44.2546 23.939L43.4896 24.866C44.0386 25.667 44.9746 26.108 46.0096 26.108ZM51.4676 26.108C52.1966 26.108 52.7816 25.919 53.2316 25.541C53.6816 25.163 53.9066 24.677 53.9066 24.083C53.9066 23.345 53.5286 22.796 52.7726 22.427C52.6016 22.346 52.3316 22.229 51.9626 22.076L51.3056 21.788C50.9456 21.608 50.7656 21.392 50.7656 21.131C50.7656 20.744 51.0896 20.492 51.6206 20.492C52.1156 20.492 52.7096 20.717 53.0786 21.113L53.7896 20.141C53.1956 19.538 52.4666 19.241 51.6026 19.241C50.9366 19.241 50.3876 19.43 49.9646 19.799C49.5416 20.168 49.3346 20.627 49.3346 21.185C49.3346 21.887 49.6856 22.436 50.3876 22.841C50.5676 22.94 50.8286 23.066 51.1706 23.201C51.5216 23.336 51.7376 23.417 51.8276 23.462C52.2326 23.651 52.4306 23.885 52.4306 24.155C52.4306 24.578 52.0256 24.866 51.4766 24.866C50.7926 24.866 50.1446 24.542 49.7126 23.939L48.9476 24.866C49.4966 25.667 50.4326 26.108 51.4676 26.108ZM62.4129 26L59.9109 19.349H58.8219L56.2839 26H57.6789L58.1919 24.56H60.5139L61.0089 26H62.4129ZM60.1359 23.372H58.5699L59.3619 21.158L60.1359 23.372ZM67.5815 23.462L64.0715 19.349H63.2255V26H64.5395V21.923L67.9865 26H68.8955V19.349H67.5815V23.462ZM72.918 26C73.935 26 74.727 25.703 75.303 25.109C75.888 24.515 76.176 23.705 76.176 22.688C76.176 21.653 75.888 20.843 75.321 20.249C74.754 19.646 73.971 19.349 72.972 19.349H70.371V26H72.918ZM71.703 20.627H72.981C73.557 20.627 73.998 20.825 74.313 21.212C74.628 21.599 74.79 22.076 74.79 22.661C74.79 23.255 74.628 23.75 74.313 24.137C73.998 24.524 73.557 24.722 72.981 24.722H71.703V20.627ZM33.4618 39V36.291H36.2518V39H37.5838V32.349H36.2518V35.004H33.4618V32.349H32.1298V39H33.4618ZM42.1246 39.108C43.1056 39.108 43.9246 38.775 44.5906 38.109C45.2656 37.443 45.5986 36.633 45.5986 35.679C45.5986 34.725 45.2656 33.915 44.5906 33.24C43.9246 32.565 43.1056 32.232 42.1336 32.232C41.1616 32.232 40.3426 32.565 39.6676 33.24C39.0016 33.915 38.6686 34.734 38.6686 35.697C38.6686 36.66 39.0016 37.47 39.6586 38.127C40.3156 38.784 41.1436 39.108 42.1246 39.108ZM44.2126 35.679C44.2216 36.282 44.0236 36.786 43.6186 37.191C43.2136 37.596 42.7186 37.794 42.1336 37.794C41.5486 37.794 41.0536 37.596 40.6486 37.191C40.2526 36.786 40.0546 36.282 40.0546 35.679C40.0546 35.076 40.2526 34.563 40.6576 34.158C41.0626 33.753 41.5486 33.546 42.1336 33.546C42.7186 33.546 43.2046 33.753 43.6096 34.158C44.0146 34.563 44.2126 35.067 44.2126 35.679ZM51.4005 39V37.722H48.0255V32.349H46.6845V39H51.4005ZM54.8125 39C55.8295 39 56.6215 38.703 57.1975 38.109C57.7825 37.515 58.0705 36.705 58.0705 35.688C58.0705 34.653 57.7825 33.843 57.2155 33.249C56.6485 32.646 55.8655 32.349 54.8665 32.349H52.2655V39H54.8125ZM53.5975 33.627H54.8755C55.4515 33.627 55.8925 33.825 56.2075 34.212C56.5225 34.599 56.6845 35.076 56.6845 35.661C56.6845 36.255 56.5225 36.75 56.2075 37.137C55.8925 37.524 55.4515 37.722 54.8755 37.722H53.5975V33.627ZM62.4031 39H63.7531V33.636H65.6521V32.349H60.5041V33.636H62.4031V39ZM69.3355 39.108C70.3165 39.108 71.1355 38.775 71.8015 38.109C72.4765 37.443 72.8095 36.633 72.8095 35.679C72.8095 34.725 72.4765 33.915 71.8015 33.24C71.1355 32.565 70.3165 32.232 69.3445 32.232C68.3725 32.232 67.5535 32.565 66.8785 33.24C66.2125 33.915 65.8795 34.734 65.8795 35.697C65.8795 36.66 66.2125 37.47 66.8695 38.127C67.5265 38.784 68.3545 39.108 69.3355 39.108ZM71.4235 35.679C71.4325 36.282 71.2345 36.786 70.8295 37.191C70.4245 37.596 69.9295 37.794 69.3445 37.794C68.7595 37.794 68.2645 37.596 67.8595 37.191C67.4635 36.786 67.2655 36.282 67.2655 35.679C67.2655 35.076 67.4635 34.563 67.8685 34.158C68.2735 33.753 68.7595 33.546 69.3445 33.546C69.9295 33.546 70.4155 33.753 70.8205 34.158C71.2255 34.563 71.4235 35.067 71.4235 35.679Z" fill="white"/>
<path d="M29.3364 58.168C30.4284 58.168 31.3244 57.874 32.0104 57.3C32.6964 56.726 33.0464 55.97 33.0464 55.06C33.0464 53.954 32.4724 53.1 31.3384 52.526C31.0864 52.4 30.6804 52.204 30.1064 51.966L29.0144 51.462C28.4404 51.168 28.1604 50.804 28.1604 50.37C28.1604 49.712 28.7204 49.278 29.5604 49.278C30.3024 49.278 31.2124 49.628 31.7864 50.286L32.8504 48.914C31.9824 47.962 30.8764 47.486 29.5324 47.486C28.5104 47.486 27.6844 47.766 27.0544 48.34C26.4244 48.9 26.1024 49.6 26.1024 50.454C26.1024 51.518 26.6484 52.372 27.7264 53.002C27.9924 53.156 28.3984 53.352 28.9444 53.576C29.4904 53.786 29.8264 53.926 29.9664 53.996C30.6104 54.318 30.9324 54.71 30.9324 55.172C30.9324 55.858 30.2884 56.376 29.3504 56.376C28.2164 56.376 27.3204 55.872 26.6624 54.878L25.5144 56.194C26.3404 57.468 27.7684 58.168 29.3364 58.168ZM41.6243 58V56.208H36.6683V53.66H41.2463V51.882H36.6683V49.446H41.6243V47.654H34.7503V58H41.6243ZM50.4426 58V56.208H45.4866V53.66H50.0646V51.882H45.4866V49.446H50.4426V47.654H43.5686V58H50.4426ZM57.736 58V51.868L60.872 56.404H61.502L64.638 51.868V58H66.542V47.654H65.324L61.194 53.688L57.05 47.654H55.846V58H57.736ZM74.7403 47.654L72.4023 52.358L70.1203 47.654H67.9083L71.4503 54.374V58H73.3683V54.374L76.9383 47.654H74.7403ZM36.0434 74.154C37.9474 74.154 39.6274 73.258 40.5934 71.956L39.2634 70.752C38.4514 71.802 37.4154 72.32 36.1414 72.32C35.1614 72.32 34.3354 71.998 33.6774 71.34C33.0194 70.682 32.6974 69.856 32.6974 68.862C32.6974 67.84 33.0334 67 33.6914 66.328C34.3634 65.656 35.1894 65.32 36.1554 65.32C37.3594 65.32 38.3814 65.838 39.2214 66.888L40.5234 65.642C39.6134 64.34 37.9334 63.472 36.0714 63.472C34.5874 63.472 33.3274 63.976 32.2774 64.998C31.2414 66.006 30.7234 67.294 30.7234 68.862C30.7234 70.416 31.2274 71.69 32.2494 72.684C33.2714 73.664 34.5454 74.154 36.0434 74.154ZM41.3188 68.862C41.3188 70.36 41.8228 71.62 42.8448 72.642C43.8668 73.664 45.1408 74.168 46.6668 74.168C48.1928 74.168 49.4668 73.65 50.5028 72.614C51.5528 71.578 52.0708 70.318 52.0708 68.834C52.0708 67.35 51.5528 66.09 50.5028 65.04C49.4668 63.99 48.1928 63.472 46.6948 63.472C45.1968 63.472 43.9228 63.99 42.8728 65.04C41.8368 66.09 41.3188 67.364 41.3188 68.862ZM50.0828 68.834C50.0968 69.828 49.7748 70.654 49.1168 71.312C48.4588 71.97 47.6608 72.292 46.6948 72.292C45.7288 72.292 44.9308 71.97 44.2728 71.312C43.6288 70.654 43.3068 69.828 43.3068 68.834C43.3068 67.84 43.6288 67.014 44.2868 66.356C44.9448 65.698 45.7428 65.362 46.6948 65.362C47.6328 65.362 48.4308 65.698 49.0888 66.356C49.7468 67.014 50.0828 67.84 50.0828 68.834ZM57.7354 74C59.2894 74 60.5214 73.538 61.4034 72.614C62.2994 71.69 62.7474 70.43 62.7474 68.848C62.7474 67.238 62.3134 65.978 61.4314 65.054C60.5494 64.116 59.3454 63.654 57.8194 63.654H53.8294V74H57.7354ZM55.7334 65.488H57.8194C58.7574 65.488 59.4714 65.81 59.9894 66.44C60.5074 67.07 60.7594 67.854 60.7594 68.806C60.7594 69.772 60.4934 70.584 59.9754 71.214C59.4574 71.844 58.7434 72.166 57.8054 72.166H55.7334V65.488ZM71.4358 74V72.208H66.4798V69.66H71.0578V67.882H66.4798V65.446H71.4358V63.654H64.5618V74H71.4358Z" fill="white"/>
</svg>
