<svg width="475" height="418" viewBox="0 0 475 418" fill="none" xmlns="http://www.w3.org/2000/svg">
<path d="M237.424 417.866C237.424 417.866 0 284.909 0 123.461C0 94.9195 9.88856 67.2601 27.9833 45.1881C46.078 23.1161 71.261 7.99507 99.2478 2.39771C127.235 -3.19965 156.296 1.07241 181.488 14.4871C206.68 27.9017 226.446 49.6302 237.424 75.9758V75.9758C248.401 49.6302 268.167 27.9017 293.359 14.4871C318.551 1.07241 347.613 -3.19965 375.6 2.39771C403.587 7.99507 428.77 23.1161 446.864 45.1881C464.959 67.2601 474.848 94.9195 474.848 123.461C474.848 284.909 237.424 417.866 237.424 417.866Z" fill="#ED1C24"/>
</svg>
