<svg width="40" height="36" viewBox="0 0 40 36" fill="none" xmlns="http://www.w3.org/2000/svg">
<rect width="40" height="36" fill="#F25022"/>
<path d="M23.3625 21.7C22.4449 22.5406 21.2444 23.0048 20 23C18.9908 22.9999 18.0053 22.6945 17.173 22.1238C16.3407 21.5531 15.7005 20.7439 15.3367 19.8026C14.9729 18.8613 14.9024 17.8319 15.1346 16.8498C15.3668 15.8677 15.8907 14.9788 16.6375 14.3" stroke="white" stroke-width="1.5" stroke-linecap="round" stroke-linejoin="round"/>
<path d="M13.25 10.575C8.15 13.15 6 18 6 18C6 18 10 27 20 27C22.3432 27.019 24.6572 26.4791 26.75 25.425" stroke="white" stroke-width="1.5" stroke-linecap="round" stroke-linejoin="round"/>
<path d="M30.0751 23.1375C32.8001 20.7 34.0001 18 34.0001 18C34.0001 18 30.0001 9.00003 20.0001 9.00003C19.1332 8.99832 18.2676 9.0694 17.4126 9.21253" stroke="white" stroke-width="1.5" stroke-linecap="round" stroke-linejoin="round"/>
<path d="M20.9375 13.0874C22.0008 13.2889 22.9697 13.8307 23.6981 14.6312C24.4264 15.4317 24.8746 16.4473 24.975 17.5249" stroke="white" stroke-width="1.5" stroke-linecap="round" stroke-linejoin="round"/>
<path d="M20 9C10 9 6 18 6 18C6 18 10 27 20 27C30 27 34 18 34 18C34 18 30 9 20 9Z" stroke="white" stroke-width="1.5" stroke-linecap="round" stroke-linejoin="round"/>
<path d="M20 23C22.7614 23 25 20.7614 25 18C25 15.2386 22.7614 13 20 13C17.2386 13 15 15.2386 15 18C15 20.7614 17.2386 23 20 23Z" stroke="white" stroke-width="1.5" stroke-linecap="round" stroke-linejoin="round"/>
</svg>
