<svg width="40" height="36" viewBox="0 0 40 36" fill="none" xmlns="http://www.w3.org/2000/svg">
<rect width="40" height="36" fill="#F25022"/>
<path d="M4.85 4.61V12H6.21V9.39H7.41C8.3 9.39 8.96 9.16 9.4 8.71C9.85 8.26 10.07 7.69 10.07 7.02C10.07 6.35 9.86 5.79 9.43 5.32C9 4.85 8.37 4.61 7.52 4.61H4.85ZM6.21 8.14V5.88H7.55C8.26 5.88 8.68 6.37 8.68 7C8.68 7.63 8.25 8.14 7.45 8.14H6.21ZM16.7084 12L14.8484 9.07C15.8784 8.74 16.3984 7.88 16.3984 6.92C16.3984 6.27 16.1884 5.73 15.7584 5.28C15.3284 4.83 14.7184 4.61 13.9184 4.61H11.1684V12H12.5284V9.23H13.4384L15.0884 12H16.7084ZM13.9184 5.88C14.5984 5.88 14.9984 6.34 14.9984 6.93C14.9984 7.53 14.5984 8 13.7684 8H12.5284V5.88H13.9184ZM22.7483 12V10.72H19.2083V8.9H22.4783V7.63H19.2083V5.89H22.7483V4.61H17.8383V12H22.7483ZM26.2271 12.12C27.0071 12.12 27.6471 11.91 28.1371 11.5C28.6271 11.09 28.8771 10.55 28.8771 9.9C28.8771 9.11 28.4671 8.5 27.6571 8.09C27.4771 8 27.1871 7.86 26.7771 7.69L25.9971 7.33C25.5871 7.12 25.3871 6.86 25.3871 6.55C25.3871 6.08 25.7871 5.77 26.3871 5.77C26.9171 5.77 27.5671 6.02 27.9771 6.49L28.7371 5.51C28.1171 4.83 27.3271 4.49 26.3671 4.49C25.6371 4.49 25.0471 4.69 24.5971 5.1C24.1471 5.5 23.9171 6 23.9171 6.61C23.9171 7.37 24.3071 7.98 25.0771 8.43C25.2671 8.54 25.5571 8.68 25.9471 8.84C26.3371 8.99 26.5771 9.09 26.6771 9.14C27.1371 9.37 27.3671 9.65 27.3671 9.98C27.3671 10.47 26.9071 10.84 26.2371 10.84C25.4271 10.84 24.7871 10.48 24.3171 9.77L23.4971 10.71C24.0871 11.62 25.1071 12.12 26.2271 12.12ZM32.1841 12.12C32.9641 12.12 33.6041 11.91 34.0941 11.5C34.5841 11.09 34.8341 10.55 34.8341 9.9C34.8341 9.11 34.4241 8.5 33.6141 8.09C33.4341 8 33.1441 7.86 32.7341 7.69L31.9541 7.33C31.5441 7.12 31.3441 6.86 31.3441 6.55C31.3441 6.08 31.7441 5.77 32.3441 5.77C32.8741 5.77 33.5241 6.02 33.9341 6.49L34.6941 5.51C34.0741 4.83 33.2841 4.49 32.3241 4.49C31.5941 4.49 31.0041 4.69 30.5541 5.1C30.1041 5.5 29.8741 6 29.8741 6.61C29.8741 7.37 30.2641 7.98 31.0341 8.43C31.2241 8.54 31.5141 8.68 31.9041 8.84C32.2941 8.99 32.5341 9.09 32.6341 9.14C33.0941 9.37 33.3241 9.65 33.3241 9.98C33.3241 10.47 32.8641 10.84 32.1941 10.84C31.3841 10.84 30.7441 10.48 30.2741 9.77L29.4541 10.71C30.0441 11.62 31.0641 12.12 32.1841 12.12ZM10.82 21L7.99 13.61H6.94L4.08 21H5.53L6.14 19.32H8.76L9.37 21H10.82ZM8.37 18.09H6.54L7.46 15.56L8.37 18.09ZM16.6241 18.35L12.5841 13.61H11.7641V21H13.1141V16.3L17.0841 21H17.9741V13.61H16.6241V18.35ZM22.4642 21C23.5742 21 24.4542 20.67 25.0842 20.01C25.7242 19.35 26.0442 18.45 26.0442 17.32C26.0442 16.17 25.7342 15.27 25.1042 14.61C24.4742 13.94 23.6142 13.61 22.5242 13.61H19.6742V21H22.4642ZM21.0342 14.92H22.5242C23.1942 14.92 23.7042 15.15 24.0742 15.6C24.4442 16.05 24.6242 16.61 24.6242 17.29C24.6242 17.98 24.4342 18.56 24.0642 19.01C23.6942 19.46 23.1842 19.69 22.5142 19.69H21.0342V14.92ZM6.22 30V26.92H9.46V30H10.83V22.61H9.46V25.6H6.22V22.61H4.85V30H6.22ZM12.0858 26.33C12.0858 27.4 12.4458 28.3 13.1758 29.03C13.9058 29.76 14.8158 30.12 15.9058 30.12C16.9958 30.12 17.9058 29.75 18.6458 29.01C19.3958 28.27 19.7658 27.37 19.7658 26.31C19.7658 25.25 19.3958 24.35 18.6458 23.6C17.9058 22.85 16.9958 22.48 15.9258 22.48C14.8558 22.48 13.9458 22.85 13.1958 23.6C12.4558 24.35 12.0858 25.26 12.0858 26.33ZM18.3458 26.31C18.3558 27.02 18.1258 27.61 17.6558 28.08C17.1858 28.55 16.6158 28.78 15.9258 28.78C15.2358 28.78 14.6658 28.55 14.1958 28.08C13.7358 27.61 13.5058 27.02 13.5058 26.31C13.5058 25.6 13.7358 25.01 14.2058 24.54C14.6758 24.07 15.2458 23.83 15.9258 23.83C16.5958 23.83 17.1658 24.07 17.6358 24.54C18.1058 25.01 18.3458 25.6 18.3458 26.31ZM26.1919 30V28.69H22.3919V22.61H21.0219V30H26.1919ZM29.974 30C31.084 30 31.964 29.67 32.594 29.01C33.234 28.35 33.554 27.45 33.554 26.32C33.554 25.17 33.244 24.27 32.614 23.61C31.984 22.94 31.124 22.61 30.034 22.61H27.184V30H29.974ZM28.544 23.92H30.034C30.704 23.92 31.214 24.15 31.584 24.6C31.954 25.05 32.134 25.61 32.134 26.29C32.134 26.98 31.944 27.56 31.574 28.01C31.204 28.46 30.694 28.69 30.024 28.69H28.544V23.92Z" fill="white"/>
</svg>
