<svg width="364" height="169" viewBox="0 0 364 169" fill="none" xmlns="http://www.w3.org/2000/svg">
<g clip-path="url(#clip0_508_912)">
<path d="M344.1 72.8999L273.2 106.2L216.5 163.9L363.3 130.5L344.1 72.8999Z" fill="#E6E7E8"/>
<path d="M222.6 0L248.4 75.9L273.2 106.2L344.1 72.9L292.4 55.6L222.6 0Z" fill="#DEDDDD"/>
<path d="M248.4 75.8999L191.7 89.9999L161.9 146.7L216.5 163.9L273.2 106.2L248.4 75.8999Z" fill="#CCCCCC"/>
<path d="M191.7 90L155.8 60.2L124.4 10.1L222.6 0L248.4 75.9L191.7 90Z" fill="#D3D3D3"/>
<path d="M155.8 60.2001L111.8 96.6001L8.09998 72.9001L67.8 53.6001L124.4 10.1001L155.8 60.2001Z" fill="#E6E7E8"/>
<path d="M111.8 96.6002L95.1 137.6L69.8 169L161.9 146.7L191.7 90.0002L155.8 60.2002L111.8 96.6002Z" fill="#DEDDDD"/>
<path d="M8.1 72.8999L111.8 96.5999L95.1 137.6L69.8 169L0 119.4L8.1 72.8999Z" fill="#CCCCCC"/>
</g>
<defs>
<clipPath id="clip0_508_912">
<rect width="363.3" height="169" fill="white"/>
</clipPath>
</defs>
</svg>
