<svg width="338" height="164" viewBox="0 0 338 164" fill="none" xmlns="http://www.w3.org/2000/svg">
<g clip-path="url(#clip0_508_896)">
<path d="M160.9 15.5L90.9 40.1L24.6 44.2L95.5 0L160.9 15.5Z" fill="#E6E7E8"/>
<path d="M90.9 40.1001V83.9001L0 96.6001L24.6 44.2001L90.9 40.1001Z" fill="#DEDDDD"/>
<path d="M90.9 83.8999L49.8 134.4L0 96.5999L90.9 83.8999Z" fill="#E6E7E8"/>
<path d="M160.9 15.5L149.2 68.3L110 88.9L90.9 83.9V40.1L160.9 15.5Z" fill="#D3D3D3"/>
<path d="M149.2 68.3L176.5 94.7L216.1 76.9L160.9 15.5L149.2 68.3Z" fill="#E6E7E8"/>
<path d="M176.5 94.6998L155 118.9L120.9 102.6L110 88.8998L149.2 68.2998L176.5 94.6998Z" fill="#CCCCCC"/>
<path d="M90.9001 83.8999L110 88.8999L120.9 102.6L125.9 140.2L87.6 163.2L49.8 134.4L90.9001 83.8999Z" fill="#DEDDDD"/>
<path d="M120.9 102.6L155 118.9L180.1 139.4L207.9 143.2L87.6 163.2L125.9 140.2L120.9 102.6Z" fill="#E6E7E8"/>
<path d="M216.1 76.8999L204.4 109.2L155 118.9L176.5 94.6999L216.1 76.8999Z" fill="#D3D3D3"/>
<path d="M155 118.9L204.4 109.2L263.4 156.3L207.9 143.2L180.1 139.4L155 118.9Z" fill="#CCCCCC"/>
<path d="M204.4 109.2L264.6 90.6L298.3 65.5L216.1 76.9L204.4 109.2Z" fill="#E6E7E8"/>
<path d="M264.6 90.6L292.8 107.2L327.4 114.6L338 88.4L298.3 65.5L264.6 90.6Z" fill="#CCCCCC"/>
<path d="M292.8 107.2L283.2 127.9L204.4 109.2L264.6 90.6001L292.8 107.2Z" fill="#D3D3D3"/>
<path d="M327.4 114.6L292.8 107.2L283.2 127.9L263.4 156.3L327.4 114.6Z" fill="#C1C1C0"/>
<path d="M283.2 127.9L204.4 109.2L263.4 156.3L283.2 127.9Z" fill="#E6E7E8"/>
</g>
<defs>
<clipPath id="clip0_508_896">
<rect width="338" height="163.2" fill="white"/>
</clipPath>
</defs>
</svg>
