<svg width="32" height="32" viewBox="0 0 32 32" fill="none" xmlns="http://www.w3.org/2000/svg">
<path d="M16 13V18" stroke="#F25022" stroke-width="1.5" stroke-linecap="round" stroke-linejoin="round"/>
<path d="M14.275 5.00007L3.27504 24.0001C3.0998 24.3036 3.00739 24.6478 3.00708 24.9983C3.00677 25.3488 3.09856 25.6932 3.27327 25.997C3.44797 26.3009 3.69945 26.5534 4.00251 26.7295C4.30556 26.9055 4.64956 26.9988 5.00004 27.0001H27C27.3505 26.9988 27.6945 26.9055 27.9976 26.7295C28.3006 26.5534 28.5521 26.3009 28.7268 25.997C28.9015 25.6932 28.9933 25.3488 28.993 24.9983C28.9927 24.6478 28.9003 24.3036 28.725 24.0001L17.725 5.00007C17.5511 4.69616 17.3 4.44359 16.9971 4.26793C16.6941 4.09227 16.3502 3.99976 16 3.99976C15.6499 3.99976 15.3059 4.09227 15.003 4.26793C14.7001 4.44359 14.449 4.69616 14.275 5.00007V5.00007Z" stroke="#F25022" stroke-width="1.5" stroke-linecap="round" stroke-linejoin="round"/>
<path d="M16 23.75C16.6904 23.75 17.25 23.1904 17.25 22.5C17.25 21.8096 16.6904 21.25 16 21.25C15.3096 21.25 14.75 21.8096 14.75 22.5C14.75 23.1904 15.3096 23.75 16 23.75Z" fill="#F25022"/>
</svg>
