<svg width="30" height="15" viewBox="0 0 30 15" fill="none" xmlns="http://www.w3.org/2000/svg">
<path d="M2.108 11V6.688H6.644V11H8.562V0.654H6.644V4.84H2.108V0.654H0.19V11H2.108ZM17.8824 7.038C17.8824 5.862 17.5324 4.938 16.8184 4.252C16.1184 3.566 15.2224 3.216 14.1164 3.216C12.9544 3.216 12.0024 3.594 11.2604 4.35C10.5324 5.092 10.1684 6.044 10.1684 7.192C10.1684 9.208 11.4284 11.168 14.2844 11.168C15.5444 11.168 16.6504 10.818 17.5884 10.118L16.8604 8.816C16.1184 9.334 15.2784 9.6 14.3544 9.6C13.0524 9.6 12.2684 8.9 12.0304 7.85H17.8264C17.8684 7.514 17.8824 7.248 17.8824 7.038ZM14.1164 4.742C15.1664 4.742 15.9364 5.4 16.0904 6.464H12.0304C12.2684 5.4 13.0524 4.742 14.1164 4.742ZM22.2882 8.536L20.2302 3.398H18.1162L21.4342 10.93L21.2522 11.35C20.8742 12.176 20.3702 12.582 19.7682 12.582C19.4742 12.582 19.1522 12.498 18.8022 12.33L18.5082 13.87C18.8582 14.108 19.3342 14.234 19.9082 14.234C21.3502 14.234 22.2742 13.352 23.0022 11.49L26.0822 3.398H24.0942L22.2882 8.536ZM29.2587 8.214L29.3847 0.485999H27.4527L27.5507 8.214H29.2587ZM28.4327 11.168C29.0347 11.168 29.4967 10.692 29.4967 10.076C29.4967 9.474 29.0347 9.012 28.4327 9.012C27.8167 9.012 27.3267 9.474 27.3267 10.076C27.3267 10.692 27.8167 11.168 28.4327 11.168Z" fill="white"/>
</svg>
