<svg width="32" height="32" viewBox="0 0 32 32" fill="none" xmlns="http://www.w3.org/2000/svg">
<path d="M24.782 10.5L17 15.949" stroke="white" stroke-width="2" stroke-linecap="round" stroke-linejoin="round"/>
<path d="M17 16L24.7819 21.449" stroke="white" stroke-width="2" stroke-linecap="round" stroke-linejoin="round"/>
<path d="M25.2251 22C23.9317 23.9875 22.0306 25.5038 19.8053 26.3229C17.58 27.142 15.1496 27.2201 12.8763 26.5455C10.6029 25.8709 8.60849 24.4798 7.19016 22.5794C5.77183 20.6791 5.00555 18.3713 5.00555 16C5.00555 13.6287 5.77183 11.3209 7.19016 9.42057C8.6085 7.52023 10.6029 6.12909 12.8763 5.4545C15.1496 4.77992 17.58 4.858 19.8053 5.67712C22.0306 6.49624 23.9317 8.01253 25.2251 10" stroke="white" stroke-width="2" stroke-linecap="round" stroke-linejoin="round"/>
</svg>
