<svg width="129" height="129" viewBox="0 0 129 129" fill="none" xmlns="http://www.w3.org/2000/svg">
<circle cx="64.5" cy="64.5" r="64.5" fill="#ED1C24"/>
<path d="M15.7121 51.61V59H16.3221V56.13H17.9021C18.6921 56.13 19.2921 55.91 19.7121 55.47C20.1421 55.02 20.3521 54.49 20.3521 53.87C20.3521 53.26 20.1521 52.73 19.7421 52.28C19.3421 51.83 18.7621 51.61 17.9921 51.61H15.7121ZM16.3221 55.56V52.19H18.0221C19.0721 52.19 19.7321 52.89 19.7321 53.86C19.7321 54.83 19.0421 55.56 17.9121 55.56H16.3221ZM26.4087 59L24.4287 55.82C25.0187 55.71 25.4687 55.47 25.7787 55.08C26.0987 54.69 26.2587 54.24 26.2587 53.75C26.2587 53.17 26.0587 52.67 25.6487 52.25C25.2487 51.82 24.6687 51.61 23.9187 51.61H21.6887V59H22.2987V55.88H23.7787L25.6687 59H26.4087ZM23.9287 52.19C24.9787 52.19 25.6287 52.82 25.6287 53.73C25.6287 54.66 24.9787 55.3 23.7787 55.3H22.2987V52.19H23.9287ZM32.3501 59V58.42H28.4901V55.54H32.0701V54.97H28.4901V52.19H32.3301V51.61H27.8801V59H32.3501ZM35.626 59.12C36.286 59.12 36.836 58.93 37.276 58.56C37.726 58.18 37.946 57.69 37.946 57.09C37.946 56.37 37.546 55.8 36.756 55.37C36.606 55.29 36.326 55.16 35.916 54.98C35.506 54.8 35.236 54.67 35.106 54.6C34.516 54.29 34.216 53.88 34.216 53.37C34.216 52.58 34.836 52.05 35.706 52.05C36.366 52.05 36.906 52.35 37.326 52.95L37.786 52.58C37.276 51.85 36.576 51.48 35.696 51.48C35.066 51.48 34.546 51.66 34.156 52.03C33.766 52.39 33.576 52.85 33.576 53.4C33.576 54.15 33.996 54.74 34.836 55.16C34.966 55.23 35.206 55.34 35.566 55.5C35.936 55.66 36.186 55.78 36.326 55.85C36.966 56.17 37.296 56.54 37.296 57.11C37.296 57.52 37.136 57.86 36.826 58.13C36.516 58.4 36.106 58.54 35.606 58.54C34.736 58.54 34.056 58.06 33.686 57.25L33.196 57.58C33.646 58.59 34.586 59.12 35.626 59.12ZM41.1338 59.12C41.7938 59.12 42.3438 58.93 42.7838 58.56C43.2338 58.18 43.4538 57.69 43.4538 57.09C43.4538 56.37 43.0538 55.8 42.2638 55.37C42.1138 55.29 41.8338 55.16 41.4238 54.98C41.0138 54.8 40.7438 54.67 40.6138 54.6C40.0238 54.29 39.7238 53.88 39.7238 53.37C39.7238 52.58 40.3438 52.05 41.2138 52.05C41.8738 52.05 42.4138 52.35 42.8338 52.95L43.2938 52.58C42.7838 51.85 42.0838 51.48 41.2038 51.48C40.5738 51.48 40.0538 51.66 39.6638 52.03C39.2738 52.39 39.0838 52.85 39.0838 53.4C39.0838 54.15 39.5038 54.74 40.3438 55.16C40.4738 55.23 40.7138 55.34 41.0738 55.5C41.4438 55.66 41.6938 55.78 41.8338 55.85C42.4738 56.17 42.8038 56.54 42.8038 57.11C42.8038 57.52 42.6438 57.86 42.3338 58.13C42.0238 58.4 41.6138 58.54 41.1138 58.54C40.2438 58.54 39.5638 58.06 39.1938 57.25L38.7038 57.58C39.1538 58.59 40.0938 59.12 41.1338 59.12ZM52.4391 59L49.5091 51.61H49.1791L46.2291 59H46.8991L47.7791 56.76H50.8891L51.7691 59H52.4391ZM50.6891 56.19H47.9791L49.3391 52.7L50.6891 56.19ZM58.6825 57.68L53.8825 51.61H53.6125V59H54.2225V52.99L58.9725 59H59.2925V51.61H58.6825V57.68ZM63.7679 59C64.8479 59 65.6979 58.67 66.3179 58.01C66.9379 57.35 67.2479 56.45 67.2479 55.32C67.2479 54.18 66.9379 53.28 66.3279 52.61C65.7179 51.94 64.8979 51.61 63.8479 51.61H61.3079V59H63.7679ZM61.9179 52.19H63.8279C64.6979 52.19 65.3779 52.47 65.8679 53.04C66.3679 53.61 66.6179 54.36 66.6179 55.31C66.6179 56.26 66.3679 57.01 65.8579 57.58C65.3579 58.14 64.6579 58.42 63.7679 58.42H61.9179V52.19ZM71.8888 59V55.61H76.0088V59H76.6188V51.61H76.0088V55.03H71.8888V51.61H71.2688V59H71.8888ZM81.9118 59.12C82.9718 59.12 83.8718 58.75 84.6118 58C85.3618 57.25 85.7318 56.35 85.7318 55.3C85.7318 54.25 85.3618 53.35 84.6118 52.6C83.8718 51.85 82.9818 51.48 81.9318 51.48C80.8818 51.48 79.9818 51.86 79.2418 52.61C78.5018 53.36 78.1318 54.26 78.1318 55.32C78.1318 56.37 78.5018 57.27 79.2318 58.01C79.9618 58.75 80.8618 59.12 81.9118 59.12ZM81.9318 58.53C81.0418 58.53 80.2818 58.22 79.6718 57.6C79.0618 56.97 78.7518 56.21 78.7518 55.31C78.7518 54.41 79.0618 53.65 79.6718 53.02C80.2918 52.39 81.0418 52.07 81.9318 52.07C82.8218 52.07 83.5718 52.38 84.1818 53.01C84.7918 53.64 85.1018 54.4 85.1018 55.31C85.1018 56.21 84.7918 56.97 84.1818 57.6C83.5718 58.22 82.8218 58.53 81.9318 58.53ZM91.9854 59V58.41H87.8554V51.61H87.2454V59H91.9854ZM95.594 59C96.674 59 97.524 58.67 98.144 58.01C98.764 57.35 99.074 56.45 99.074 55.32C99.074 54.18 98.764 53.28 98.154 52.61C97.544 51.94 96.724 51.61 95.674 51.61H93.134V59H95.594ZM93.744 52.19H95.654C96.524 52.19 97.204 52.47 97.694 53.04C98.194 53.61 98.444 54.36 98.444 55.31C98.444 56.26 98.194 57.01 97.684 57.58C97.184 58.14 96.484 58.42 95.594 58.42H93.744V52.19ZM104.123 59H104.733V52.2H106.973V51.61H101.883V52.2H104.123V59ZM110.974 59.12C112.034 59.12 112.934 58.75 113.674 58C114.424 57.25 114.794 56.35 114.794 55.3C114.794 54.25 114.424 53.35 113.674 52.6C112.934 51.85 112.044 51.48 110.994 51.48C109.944 51.48 109.044 51.86 108.304 52.61C107.564 53.36 107.194 54.26 107.194 55.32C107.194 56.37 107.564 57.27 108.294 58.01C109.024 58.75 109.924 59.12 110.974 59.12ZM110.994 58.53C110.104 58.53 109.344 58.22 108.734 57.6C108.124 56.97 107.814 56.21 107.814 55.31C107.814 54.41 108.124 53.65 108.734 53.02C109.354 52.39 110.104 52.07 110.994 52.07C111.884 52.07 112.634 52.38 113.244 53.01C113.854 53.64 114.164 54.4 114.164 55.31C114.164 56.21 113.854 56.97 113.244 57.6C112.634 58.22 111.884 58.53 110.994 58.53ZM25.4792 79.144C26.4152 79.144 27.1832 78.892 27.7712 78.4C28.3592 77.908 28.6592 77.26 28.6592 76.48C28.6592 75.532 28.1672 74.8 27.1952 74.308C26.9792 74.2 26.6312 74.032 26.1392 73.828L25.2032 73.396C24.7112 73.144 24.4712 72.832 24.4712 72.46C24.4712 71.896 24.9512 71.524 25.6712 71.524C26.3072 71.524 27.0872 71.824 27.5792 72.388L28.4912 71.212C27.7472 70.396 26.7992 69.988 25.6472 69.988C24.7712 69.988 24.0632 70.228 23.5232 70.72C22.9832 71.2 22.7072 71.8 22.7072 72.532C22.7072 73.444 23.1752 74.176 24.0992 74.716C24.3272 74.848 24.6752 75.016 25.1432 75.208C25.6112 75.388 25.8992 75.508 26.0192 75.568C26.5712 75.844 26.8472 76.18 26.8472 76.576C26.8472 77.164 26.2952 77.608 25.4912 77.608C24.5192 77.608 23.7512 77.176 23.1872 76.324L22.2032 77.452C22.9112 78.544 24.1352 79.144 25.4792 79.144ZM36.0116 79V77.464H31.7636V75.28H35.6876V73.756H31.7636V71.668H36.0116V70.132H30.1196V79H36.0116ZM43.5702 79V77.464H39.3222V75.28H43.2462V73.756H39.3222V71.668H43.5702V70.132H37.6782V79H43.5702ZM49.8216 79V73.744L52.5096 77.632H53.0496L55.7376 73.744V79H57.3696V70.132H56.3256L52.7856 75.304L49.2336 70.132H48.2016V79H49.8216ZM64.3968 70.132L62.3928 74.164L60.4368 70.132H58.5408L61.5768 75.892V79H63.2208V75.892L66.2808 70.132H64.3968ZM74.1363 79.132C75.7683 79.132 77.2083 78.364 78.0363 77.248L76.8963 76.216C76.2003 77.116 75.3123 77.56 74.2203 77.56C73.3803 77.56 72.6723 77.284 72.1083 76.72C71.5443 76.156 71.2683 75.448 71.2683 74.596C71.2683 73.72 71.5563 73 72.1203 72.424C72.6963 71.848 73.4043 71.56 74.2323 71.56C75.2643 71.56 76.1403 72.004 76.8603 72.904L77.9763 71.836C77.1963 70.72 75.7563 69.976 74.1603 69.976C72.8883 69.976 71.8083 70.408 70.9083 71.284C70.0203 72.148 69.5763 73.252 69.5763 74.596C69.5763 75.928 70.0083 77.02 70.8843 77.872C71.7603 78.712 72.8523 79.132 74.1363 79.132ZM78.658 74.596C78.658 75.88 79.09 76.96 79.966 77.836C80.842 78.712 81.934 79.144 83.242 79.144C84.55 79.144 85.642 78.7 86.53 77.812C87.43 76.924 87.874 75.844 87.874 74.572C87.874 73.3 87.43 72.22 86.53 71.32C85.642 70.42 84.55 69.976 83.266 69.976C81.982 69.976 80.89 70.42 79.99 71.32C79.102 72.22 78.658 73.312 78.658 74.596ZM86.17 74.572C86.182 75.424 85.906 76.132 85.342 76.696C84.778 77.26 84.094 77.536 83.266 77.536C82.438 77.536 81.754 77.26 81.19 76.696C80.638 76.132 80.362 75.424 80.362 74.572C80.362 73.72 80.638 73.012 81.202 72.448C81.766 71.884 82.45 71.596 83.266 71.596C84.07 71.596 84.754 71.884 85.318 72.448C85.882 73.012 86.17 73.72 86.17 74.572ZM92.7293 79C94.0613 79 95.1173 78.604 95.8733 77.812C96.6413 77.02 97.0253 75.94 97.0253 74.584C97.0253 73.204 96.6533 72.124 95.8973 71.332C95.1413 70.528 94.1093 70.132 92.8013 70.132H89.3813V79H92.7293ZM91.0133 71.704H92.8013C93.6053 71.704 94.2173 71.98 94.6613 72.52C95.1053 73.06 95.3213 73.732 95.3213 74.548C95.3213 75.376 95.0933 76.072 94.6493 76.612C94.2053 77.152 93.5933 77.428 92.7893 77.428H91.0133V71.704ZM104.473 79V77.464H100.225V75.28H104.149V73.756H100.225V71.668H104.473V70.132H98.5805V79H104.473ZM106.595 79.192C107.111 79.192 107.507 78.784 107.507 78.256C107.507 77.74 107.111 77.344 106.595 77.344C106.067 77.344 105.647 77.74 105.647 78.256C105.647 78.784 106.067 79.192 106.595 79.192Z" fill="white"/>
</svg>
