<svg width="103" height="90" viewBox="0 0 103 90" fill="none" xmlns="http://www.w3.org/2000/svg">
<circle cx="51" cy="45" r="45" fill="#ED1C24"/>
<path d="M40.7265 26.099C41.9595 26.099 43.0485 25.523 43.6605 24.686L42.7425 23.849C42.2295 24.497 41.5815 24.821 40.8075 24.821C40.2045 24.821 39.7005 24.623 39.2955 24.218C38.8905 23.813 38.6925 23.309 38.6925 22.697C38.6925 22.067 38.8995 21.545 39.3045 21.14C39.7095 20.726 40.2135 20.519 40.8165 20.519C41.5635 20.519 42.1935 20.843 42.7155 21.482L43.6065 20.609C43.0215 19.781 41.9415 19.232 40.7445 19.232C39.7905 19.232 38.9805 19.556 38.3055 20.213C37.6395 20.861 37.3065 21.689 37.3065 22.697C37.3065 23.696 37.6305 24.515 38.2875 25.154C38.9445 25.784 39.7635 26.099 40.7265 26.099ZM49.2823 26V24.722H45.9073V19.349H44.5663V26H49.2823ZM50.1474 26H51.4884V19.349H50.1474V26ZM56.0107 26.099C57.2437 26.099 58.3327 25.523 58.9447 24.686L58.0267 23.849C57.5137 24.497 56.8657 24.821 56.0917 24.821C55.4887 24.821 54.9847 24.623 54.5797 24.218C54.1747 23.813 53.9767 23.309 53.9767 22.697C53.9767 22.067 54.1837 21.545 54.5887 21.14C54.9937 20.726 55.4977 20.519 56.1007 20.519C56.8477 20.519 57.4777 20.843 57.9997 21.482L58.8907 20.609C58.3057 19.781 57.2257 19.232 56.0287 19.232C55.0747 19.232 54.2647 19.556 53.5897 20.213C52.9237 20.861 52.5907 21.689 52.5907 22.697C52.5907 23.696 52.9147 24.515 53.5717 25.154C54.2287 25.784 55.0477 26.099 56.0107 26.099ZM65.4845 26L62.8745 22.373L65.3135 19.349H63.7025L61.1825 22.49V19.349H59.8505V26H61.1825V24.344L62.0015 23.363L63.8465 26H65.4845ZM33.6508 39V36.291H36.4408V39H37.7728V32.349H36.4408V35.004H33.6508V32.349H32.3188V39H33.6508ZM43.7535 39V37.758H40.5855V36.264H43.5195V35.022H40.5855V33.591H43.7535V32.349H39.2445V39H43.7535ZM50.06 39L48.449 36.408C49.349 36.084 49.799 35.319 49.799 34.455C49.799 33.861 49.601 33.366 49.214 32.961C48.827 32.556 48.26 32.349 47.522 32.349H44.975V39H46.307V36.579H47.099L48.503 39H50.06ZM47.513 33.582C48.089 33.582 48.431 33.969 48.431 34.473C48.431 34.986 48.089 35.382 47.396 35.382H46.307V33.582H47.513ZM55.5573 39V37.758H52.3893V36.264H55.3233V35.022H52.3893V33.591H55.5573V32.349H51.0483V39H55.5573ZM59.9905 39H61.3405V33.636H63.2395V32.349H58.0915V33.636H59.9905V39ZM66.9229 39.108C67.9039 39.108 68.7229 38.775 69.3889 38.109C70.0639 37.443 70.3969 36.633 70.3969 35.679C70.3969 34.725 70.0639 33.915 69.3889 33.24C68.7229 32.565 67.9039 32.232 66.9319 32.232C65.9599 32.232 65.1409 32.565 64.4659 33.24C63.7999 33.915 63.4669 34.734 63.4669 35.697C63.4669 36.66 63.7999 37.47 64.4569 38.127C65.1139 38.784 65.9419 39.108 66.9229 39.108ZM69.0109 35.679C69.0199 36.282 68.8219 36.786 68.4169 37.191C68.0119 37.596 67.5169 37.794 66.9319 37.794C66.3469 37.794 65.8519 37.596 65.4469 37.191C65.0509 36.786 64.8529 36.282 64.8529 35.679C64.8529 35.076 65.0509 34.563 65.4559 34.158C65.8609 33.753 66.3469 33.546 66.9319 33.546C67.5169 33.546 68.0029 33.753 68.4079 34.158C68.8129 34.563 69.0109 35.067 69.0109 35.679Z" fill="white"/>
<path d="M29.3364 58.168C30.4284 58.168 31.3244 57.874 32.0104 57.3C32.6964 56.726 33.0464 55.97 33.0464 55.06C33.0464 53.954 32.4724 53.1 31.3384 52.526C31.0864 52.4 30.6804 52.204 30.1064 51.966L29.0144 51.462C28.4404 51.168 28.1604 50.804 28.1604 50.37C28.1604 49.712 28.7204 49.278 29.5604 49.278C30.3024 49.278 31.2124 49.628 31.7864 50.286L32.8504 48.914C31.9824 47.962 30.8764 47.486 29.5324 47.486C28.5104 47.486 27.6844 47.766 27.0544 48.34C26.4244 48.9 26.1024 49.6 26.1024 50.454C26.1024 51.518 26.6484 52.372 27.7264 53.002C27.9924 53.156 28.3984 53.352 28.9444 53.576C29.4904 53.786 29.8264 53.926 29.9664 53.996C30.6104 54.318 30.9324 54.71 30.9324 55.172C30.9324 55.858 30.2884 56.376 29.3504 56.376C28.2164 56.376 27.3204 55.872 26.6624 54.878L25.5144 56.194C26.3404 57.468 27.7684 58.168 29.3364 58.168ZM41.6243 58V56.208H36.6683V53.66H41.2463V51.882H36.6683V49.446H41.6243V47.654H34.7503V58H41.6243ZM50.4426 58V56.208H45.4866V53.66H50.0646V51.882H45.4866V49.446H50.4426V47.654H43.5686V58H50.4426ZM57.736 58V51.868L60.872 56.404H61.502L64.638 51.868V58H66.542V47.654H65.324L61.194 53.688L57.05 47.654H55.846V58H57.736ZM74.7403 47.654L72.4023 52.358L70.1203 47.654H67.9083L71.4503 54.374V58H73.3683V54.374L76.9383 47.654H74.7403ZM36.0434 74.154C37.9474 74.154 39.6274 73.258 40.5934 71.956L39.2634 70.752C38.4514 71.802 37.4154 72.32 36.1414 72.32C35.1614 72.32 34.3354 71.998 33.6774 71.34C33.0194 70.682 32.6974 69.856 32.6974 68.862C32.6974 67.84 33.0334 67 33.6914 66.328C34.3634 65.656 35.1894 65.32 36.1554 65.32C37.3594 65.32 38.3814 65.838 39.2214 66.888L40.5234 65.642C39.6134 64.34 37.9334 63.472 36.0714 63.472C34.5874 63.472 33.3274 63.976 32.2774 64.998C31.2414 66.006 30.7234 67.294 30.7234 68.862C30.7234 70.416 31.2274 71.69 32.2494 72.684C33.2714 73.664 34.5454 74.154 36.0434 74.154ZM41.3188 68.862C41.3188 70.36 41.8228 71.62 42.8448 72.642C43.8668 73.664 45.1408 74.168 46.6668 74.168C48.1928 74.168 49.4668 73.65 50.5028 72.614C51.5528 71.578 52.0708 70.318 52.0708 68.834C52.0708 67.35 51.5528 66.09 50.5028 65.04C49.4668 63.99 48.1928 63.472 46.6948 63.472C45.1968 63.472 43.9228 63.99 42.8728 65.04C41.8368 66.09 41.3188 67.364 41.3188 68.862ZM50.0828 68.834C50.0968 69.828 49.7748 70.654 49.1168 71.312C48.4588 71.97 47.6608 72.292 46.6948 72.292C45.7288 72.292 44.9308 71.97 44.2728 71.312C43.6288 70.654 43.3068 69.828 43.3068 68.834C43.3068 67.84 43.6288 67.014 44.2868 66.356C44.9448 65.698 45.7428 65.362 46.6948 65.362C47.6328 65.362 48.4308 65.698 49.0888 66.356C49.7468 67.014 50.0828 67.84 50.0828 68.834ZM57.7354 74C59.2894 74 60.5214 73.538 61.4034 72.614C62.2994 71.69 62.7474 70.43 62.7474 68.848C62.7474 67.238 62.3134 65.978 61.4314 65.054C60.5494 64.116 59.3454 63.654 57.8194 63.654H53.8294V74H57.7354ZM55.7334 65.488H57.8194C58.7574 65.488 59.4714 65.81 59.9894 66.44C60.5074 67.07 60.7594 67.854 60.7594 68.806C60.7594 69.772 60.4934 70.584 59.9754 71.214C59.4574 71.844 58.7434 72.166 57.8054 72.166H55.7334V65.488ZM71.4358 74V72.208H66.4798V69.66H71.0578V67.882H66.4798V65.446H71.4358V63.654H64.5618V74H71.4358Z" fill="white"/>
</svg>
