<svg width="123" height="48" viewBox="0 0 123 48" fill="none" xmlns="http://www.w3.org/2000/svg">
<path d="M16.8969 0.367447C16.3227 0.367447 15.8203 0.833983 15.8203 1.44406V26.4216C15.8203 27.0317 16.3227 27.4983 16.8969 27.4983C17.507 27.4983 17.9735 27.0317 17.9735 26.4216V1.44406C17.9735 0.833983 17.507 0.367447 16.8969 0.367447ZM31.0006 25.7398C31.0006 25.7398 23.1413 18.4905 21.634 17.0909C23.1413 15.8349 29.2063 10.8824 29.2063 10.8824C29.4575 10.6671 29.601 10.3441 29.601 10.0211C29.601 9.80581 29.4934 9.5546 29.3498 9.33928C28.955 8.90863 28.2732 8.83685 27.8425 9.19573L19.3372 16.1938C19.086 16.4091 18.9425 16.6962 18.9425 17.0192C18.9066 17.3063 19.0501 17.6292 19.2655 17.8446L29.5651 27.3547C29.9958 27.7495 30.6776 27.7136 31.0724 27.2829C31.2518 27.0676 31.3595 26.8164 31.3595 26.5652C31.3595 26.2422 31.2518 25.9551 31.0006 25.7398Z" fill="white"/>
<path d="M32.2825 18.1317C32.2825 23.9095 35.7635 27.7854 40.8954 27.7854C46.0273 27.7854 49.5084 23.9095 49.5084 18.1317C49.5084 12.3179 46.0273 8.44209 40.8954 8.44209C35.7635 8.44209 32.2825 12.3179 32.2825 18.1317ZM34.4357 18.1317C34.4357 14.6506 36.1224 10.5953 40.8954 10.5953C45.6684 10.5953 47.3551 14.6506 47.3551 18.1317C47.3551 21.5769 45.6684 25.6321 40.8954 25.6321C36.1224 25.6321 34.4357 21.5769 34.4357 18.1317Z" fill="white"/>
<path d="M63.7203 1.40818C63.7203 1.40818 63.7203 23.1918 63.7203 25.1297C62.4284 25.1297 59.9522 25.1656 59.9522 25.1656C55.8969 25.1656 53.2053 22.5817 53.2053 18.7059C53.2053 15.9784 54.0666 13.7534 55.6098 12.4256C57.0094 11.2772 58.9114 10.8465 61.1006 11.2054C61.6748 11.3131 62.2489 10.9183 62.3566 10.3441C62.4284 9.76992 62.0336 9.19573 61.4594 9.08806C58.6243 8.62153 56.1122 9.19573 54.2461 10.7748C52.1646 12.5332 51.0521 15.3325 51.0521 18.7059C51.0521 23.766 54.7126 27.3188 59.9522 27.3188L64.8328 27.2829C65.407 27.2829 65.8736 26.7805 65.8736 26.2063V1.40818C65.8736 0.798092 65.3711 0.331558 64.7969 0.331558C64.1869 0.331558 63.7203 0.798092 63.7203 1.40818Z" fill="white"/>
<path d="M69.4306 11.026C68.9641 11.4207 68.8923 12.0667 69.2512 12.5332C69.6101 12.9998 70.2919 13.0716 70.7584 12.7127C72.9476 10.9542 75.4597 10.38 77.1823 11.2054C78.5101 11.8155 79.192 13.2869 79.192 15.3683C79.192 15.3683 79.192 23.2277 79.192 25.2374C77.5412 25.4168 75.5674 25.4168 74.7778 25.4168C71.6556 25.4168 70.1843 23.6942 70.1484 22.0434C70.1125 19.9978 72.3016 17.6651 77.1464 17.5216C77.7565 17.4857 78.223 16.9833 78.1871 16.4091C78.1512 15.799 77.6847 15.3325 77.0746 15.3683C70.7584 15.5837 67.9592 18.993 67.9951 22.0793C68.0669 24.8067 70.3996 27.57 74.7778 27.57C75.8186 27.57 77.7565 27.5341 79.4432 27.3906C79.6585 27.4265 79.9815 27.5341 79.9815 27.5341C80.3045 27.6418 80.6634 27.57 80.9146 27.3547C81.2017 27.1753 81.3452 26.8523 81.3452 26.4934V15.3683C81.3452 12.4256 80.1968 10.2723 78.1154 9.2675C75.6391 8.08322 72.2298 8.76508 69.4306 11.026Z" fill="white"/>
<path d="M85.4776 8.72919C84.9034 8.72919 84.401 9.19573 84.401 9.80581V26.3499C84.401 26.9241 84.9034 27.4265 85.4776 27.4265C86.0877 27.4265 86.5542 26.9241 86.5542 26.3499V9.80581C86.5542 9.19573 86.0877 8.72919 85.4776 8.72919ZM93.5522 8.90863C91.6502 8.15499 89.3534 8.65742 87.8461 10.2006C87.4514 10.6312 87.4514 11.3131 87.882 11.7437C88.3127 12.1385 88.9945 12.1385 89.3893 11.7078C90.2865 10.8107 91.6502 10.4877 92.7268 10.9183C94.0547 11.4566 94.7724 12.9998 94.7724 15.2966V26.4216C94.7724 26.9958 95.2389 27.4983 95.849 27.4983C96.4232 27.4983 96.9256 26.9958 96.9256 26.4216V15.2966C96.9256 12.1026 95.6696 9.80581 93.5522 8.90863ZM103.672 9.08806C101.627 8.26265 99.1507 8.80097 97.5716 10.4159C97.141 10.8465 97.1768 11.5284 97.6075 11.9232C98.0023 12.3538 98.6841 12.3538 99.1148 11.9232C100.048 10.9542 101.663 10.5953 102.847 11.0978C104.139 11.6361 104.893 13.1074 104.893 15.2966V26.4216C104.893 26.9958 105.359 27.4983 105.969 27.4983C106.543 27.4983 107.046 26.9958 107.046 26.4216V15.2966C107.046 11.0978 104.929 9.59049 103.672 9.08806Z" fill="white"/>
<path d="M110.506 11.026C110.04 11.4207 109.968 12.0667 110.327 12.5332C110.686 12.9998 111.367 13.0716 111.834 12.7127C114.023 10.9542 116.535 10.38 118.258 11.2054C119.586 11.8155 120.268 13.2869 120.268 15.3683C120.268 15.3683 120.268 23.2277 120.268 25.2374C118.617 25.4168 116.643 25.4168 115.853 25.4168C112.731 25.4168 111.26 23.6942 111.224 22.0434C111.188 19.9978 113.377 17.6651 118.222 17.5216C118.832 17.4857 119.299 16.9833 119.263 16.4091C119.227 15.799 118.76 15.3325 118.15 15.3683C111.834 15.5837 109.035 18.993 109.071 22.0793C109.142 24.8067 111.475 27.57 115.853 27.57C116.894 27.57 118.832 27.5341 120.519 27.3906C120.734 27.4265 121.057 27.5341 121.057 27.5341C121.38 27.6418 121.739 27.57 121.99 27.3547C122.277 27.1753 122.421 26.8523 122.421 26.4934V15.3683C122.421 12.4256 121.272 10.2723 119.191 9.2675C116.715 8.08322 113.305 8.76508 110.506 11.026Z" fill="white"/>
<path d="M12.2376 17.1179C6.81859 17.1179 4.09116 19.9529 4.09116 25.5873V25.9102H1.07662C0.466535 25.9102 0 26.3768 0 26.9869C0 27.5611 0.466535 28.0635 1.07662 28.0635H4.09116V43.2438C4.09116 43.8539 4.59358 44.3204 5.16777 44.3204C5.77786 44.3204 6.2444 43.8539 6.2444 43.2438V28.0635H9.43837C10.0126 28.0635 10.515 27.5611 10.515 26.9869C10.515 26.3768 10.0126 25.9102 9.43837 25.9102H6.2444V25.5873C6.2444 21.1731 8.03876 19.2711 12.2376 19.2711C12.8118 19.2711 13.3142 18.7687 13.3142 18.1945C13.3142 17.5844 12.8118 17.1179 12.2376 17.1179Z" fill="#ED1C24"/>
</svg>
