<svg width="123" height="48" viewBox="0 0 123 48" fill="none" xmlns="http://www.w3.org/2000/svg">
<path d="M16.8969 0.367447C16.3227 0.367447 15.8203 0.833983 15.8203 1.44406V26.4216C15.8203 27.0317 16.3227 27.4983 16.8969 27.4983C17.507 27.4983 17.9735 27.0317 17.9735 26.4216V1.44406C17.9735 0.833983 17.507 0.367447 16.8969 0.367447ZM31.0006 25.7398C31.0006 25.7398 23.1413 18.4905 21.634 17.0909C23.1413 15.8349 29.2063 10.8824 29.2063 10.8824C29.4575 10.6671 29.601 10.3441 29.601 10.0211C29.601 9.80581 29.4934 9.5546 29.3498 9.33928C28.955 8.90863 28.2732 8.83685 27.8425 9.19573L19.3372 16.1938C19.086 16.4091 18.9425 16.6962 18.9425 17.0192C18.9066 17.3063 19.0501 17.6292 19.2655 17.8446L29.5651 27.3547C29.9958 27.7495 30.6776 27.7136 31.0724 27.2829C31.2518 27.0676 31.3595 26.8164 31.3595 26.5652C31.3595 26.2422 31.2518 25.9551 31.0006 25.7398Z" fill="white"/>
<path d="M32.2825 18.1317C32.2825 23.9095 35.7635 27.7854 40.8954 27.7854C46.0273 27.7854 49.5084 23.9095 49.5084 18.1317C49.5084 12.3179 46.0273 8.44209 40.8954 8.44209C35.7635 8.44209 32.2825 12.3179 32.2825 18.1317ZM34.4357 18.1317C34.4357 14.6506 36.1224 10.5953 40.8954 10.5953C45.6684 10.5953 47.3551 14.6506 47.3551 18.1317C47.3551 21.5769 45.6684 25.6321 40.8954 25.6321C36.1224 25.6321 34.4357 21.5769 34.4357 18.1317Z" fill="white"/>
<path d="M63.7203 1.40818C63.7203 1.40818 63.7203 23.1918 63.7203 25.1297C62.4284 25.1297 59.9522 25.1656 59.9522 25.1656C55.8969 25.1656 53.2053 22.5817 53.2053 18.7059C53.2053 15.9784 54.0666 13.7534 55.6098 12.4256C57.0094 11.2772 58.9114 10.8465 61.1006 11.2054C61.6748 11.3131 62.2489 10.9183 62.3566 10.3441C62.4284 9.76992 62.0336 9.19573 61.4594 9.08806C58.6243 8.62153 56.1122 9.19573 54.2461 10.7748C52.1646 12.5332 51.0521 15.3325 51.0521 18.7059C51.0521 23.766 54.7126 27.3188 59.9522 27.3188L64.8328 27.2829C65.407 27.2829 65.8736 26.7805 65.8736 26.2063V1.40818C65.8736 0.798092 65.3711 0.331558 64.7969 0.331558C64.1869 0.331558 63.7203 0.798092 63.7203 1.40818Z" fill="white"/>
<path d="M69.4306 11.026C68.9641 11.4207 68.8923 12.0667 69.2512 12.5332C69.6101 12.9998 70.2919 13.0716 70.7584 12.7127C72.9476 10.9542 75.4597 10.38 77.1823 11.2054C78.5101 11.8155 79.192 13.2869 79.192 15.3683C79.192 15.3683 79.192 23.2277 79.192 25.2374C77.5412 25.4168 75.5674 25.4168 74.7778 25.4168C71.6556 25.4168 70.1843 23.6942 70.1484 22.0434C70.1125 19.9978 72.3016 17.6651 77.1464 17.5216C77.7565 17.4857 78.223 16.9833 78.1871 16.4091C78.1512 15.799 77.6847 15.3325 77.0746 15.3683C70.7584 15.5837 67.9592 18.993 67.9951 22.0793C68.0669 24.8067 70.3996 27.57 74.7778 27.57C75.8186 27.57 77.7565 27.5341 79.4432 27.3906C79.6585 27.4265 79.9815 27.5341 79.9815 27.5341C80.3045 27.6418 80.6634 27.57 80.9146 27.3547C81.2017 27.1753 81.3452 26.8523 81.3452 26.4934V15.3683C81.3452 12.4256 80.1968 10.2723 78.1154 9.2675C75.6391 8.08322 72.2298 8.76508 69.4306 11.026Z" fill="white"/>
<path d="M85.4776 8.72919C84.9034 8.72919 84.401 9.19573 84.401 9.80581V26.3499C84.401 26.9241 84.9034 27.4265 85.4776 27.4265C86.0877 27.4265 86.5542 26.9241 86.5542 26.3499V9.80581C86.5542 9.19573 86.0877 8.72919 85.4776 8.72919ZM93.5522 8.90863C91.6502 8.15499 89.3534 8.65742 87.8461 10.2006C87.4514 10.6312 87.4514 11.3131 87.882 11.7437C88.3127 12.1385 88.9945 12.1385 89.3893 11.7078C90.2865 10.8107 91.6502 10.4877 92.7268 10.9183C94.0547 11.4566 94.7724 12.9998 94.7724 15.2966V26.4216C94.7724 26.9958 95.2389 27.4983 95.849 27.4983C96.4232 27.4983 96.9256 26.9958 96.9256 26.4216V15.2966C96.9256 12.1026 95.6696 9.80581 93.5522 8.90863ZM103.672 9.08806C101.627 8.26265 99.1507 8.80097 97.5716 10.4159C97.141 10.8465 97.1768 11.5284 97.6075 11.9232C98.0023 12.3538 98.6841 12.3538 99.1148 11.9232C100.048 10.9542 101.663 10.5953 102.847 11.0978C104.139 11.6361 104.893 13.1074 104.893 15.2966V26.4216C104.893 26.9958 105.359 27.4983 105.969 27.4983C106.543 27.4983 107.046 26.9958 107.046 26.4216V15.2966C107.046 11.0978 104.929 9.59049 103.672 9.08806Z" fill="white"/>
<path d="M110.506 11.026C110.04 11.4207 109.968 12.0667 110.327 12.5332C110.686 12.9998 111.367 13.0716 111.834 12.7127C114.023 10.9542 116.535 10.38 118.258 11.2054C119.586 11.8155 120.268 13.2869 120.268 15.3683C120.268 15.3683 120.268 23.2277 120.268 25.2374C118.617 25.4168 116.643 25.4168 115.853 25.4168C112.731 25.4168 111.26 23.6942 111.224 22.0434C111.188 19.9978 113.377 17.6651 118.222 17.5216C118.832 17.4857 119.299 16.9833 119.263 16.4091C119.227 15.799 118.76 15.3325 118.15 15.3683C111.834 15.5837 109.035 18.993 109.071 22.0793C109.142 24.8067 111.475 27.57 115.853 27.57C116.894 27.57 118.832 27.5341 120.519 27.3906C120.734 27.4265 121.057 27.5341 121.057 27.5341C121.38 27.6418 121.739 27.57 121.99 27.3547C122.277 27.1753 122.421 26.8523 122.421 26.4934V15.3683C122.421 12.4256 121.272 10.2723 119.191 9.2675C116.715 8.08322 113.305 8.76508 110.506 11.026Z" fill="white"/>
<path d="M52.3851 37.6828C52.1832 37.602 51.941 37.6962 51.8602 37.8981C51.8602 37.8981 50.0434 41.9893 49.4916 43.2408C48.9399 41.9893 47.1365 37.8981 47.1365 37.8981C47.0558 37.6962 46.8136 37.602 46.6117 37.6828C46.4098 37.777 46.3156 38.0192 46.3964 38.2211L49.1148 44.3982C49.1821 44.5462 49.3302 44.6404 49.4916 44.6404C49.6531 44.6404 49.7877 44.5462 49.855 44.3982L52.6004 38.2211C52.6811 38.0192 52.5869 37.777 52.3851 37.6828ZM56.557 37.6828C56.3551 37.602 56.1129 37.6962 56.0321 37.8981C56.0321 37.8981 54.2288 41.9758 53.6635 43.2274C53.2464 42.2719 52.5466 40.6435 52.5466 40.6435C52.4658 40.4416 52.2236 40.3474 52.0217 40.4416C51.8198 40.5224 51.7256 40.7646 51.8064 40.9665L53.2867 44.3982C53.354 44.5462 53.5021 44.6404 53.6635 44.6404C53.825 44.6404 53.9596 44.5462 54.0269 44.3982L56.7723 38.2211C56.853 38.0192 56.7588 37.777 56.557 37.6828Z" fill="white"/>
<path d="M57.0773 41.1414C57.0773 43.3216 58.3827 44.775 60.3071 44.775C61.4511 44.775 62.4873 44.2098 63.0256 43.6446C63.1736 43.4831 63.1602 43.2274 62.9987 43.0793C62.8372 42.9178 62.5815 42.9313 62.4335 43.0928C62.0297 43.51 61.1954 43.9676 60.3071 43.9676C58.5173 43.9676 57.8848 42.4468 57.8848 41.1414C57.8848 39.8495 58.4769 38.3288 60.1187 38.3288C61.1819 38.3288 61.949 39.0016 62.2181 40.159C61.478 40.159 58.7864 40.159 58.7864 40.159C58.5711 40.159 58.3827 40.334 58.3827 40.5627C58.3827 40.7781 58.5711 40.9665 58.7864 40.9665H62.7161C62.8237 40.9665 62.9314 40.9126 63.0122 40.8184C63.0929 40.7377 63.1198 40.6166 63.1064 40.5089C62.891 38.6921 61.7068 37.5213 60.1187 37.5213C58.3019 37.5213 57.0773 38.9747 57.0773 41.1414Z" fill="white"/>
<path d="M63.8209 34.8432V44.1425C63.8209 44.3578 63.9824 44.5462 64.2112 44.5462L65.9068 44.5597C67.8447 44.5597 69.3789 43.039 69.3789 41.1011C69.3789 39.9033 68.9887 38.9478 68.2754 38.3422C67.5756 37.7366 66.5932 37.5347 65.4627 37.7232C65.2474 37.7635 65.0994 37.9789 65.1397 38.1942C65.1801 38.4095 65.382 38.5575 65.6108 38.5172C66.499 38.3691 67.2391 38.5172 67.7505 38.9478C68.2889 39.4054 68.5715 40.1456 68.5715 41.1011C68.5715 42.4065 67.5756 43.7522 65.9068 43.7522C65.9068 43.7522 65.0859 43.7522 64.6283 43.7388C64.6283 43.0121 64.6283 34.8432 64.6283 34.8432C64.6283 34.6144 64.4399 34.4395 64.2246 34.4395C63.9958 34.4395 63.8209 34.6144 63.8209 34.8432Z" fill="white"/>
<path d="M74.6434 34.8432C74.6434 34.8432 74.6434 43.0121 74.6434 43.7388C74.159 43.7388 73.2304 43.7522 73.2304 43.7522C71.7096 43.7522 70.7003 42.7833 70.7003 41.3298C70.7003 40.307 71.0233 39.4727 71.602 38.9747C72.1268 38.5441 72.8401 38.3826 73.661 38.5172C73.8763 38.5575 74.0917 38.4095 74.132 38.1942C74.159 37.9789 74.0109 37.7635 73.7956 37.7232C72.7324 37.5482 71.7904 37.7635 71.0906 38.3557C70.31 39.0151 69.8928 40.0648 69.8928 41.3298C69.8928 43.2274 71.2655 44.5597 73.2304 44.5597L75.0606 44.5462C75.2759 44.5462 75.4509 44.3578 75.4509 44.1425V34.8432C75.4509 34.6144 75.2625 34.4395 75.0472 34.4395C74.8184 34.4395 74.6434 34.6144 74.6434 34.8432Z" fill="white"/>
<path d="M76.233 41.1414C76.233 43.3216 77.5384 44.775 79.4629 44.775C80.6068 44.775 81.643 44.2098 82.1814 43.6446C82.3294 43.4831 82.3159 43.2274 82.1544 43.0793C81.9929 42.9178 81.7372 42.9313 81.5892 43.0928C81.1855 43.51 80.3511 43.9676 79.4629 43.9676C77.673 43.9676 77.0405 42.4468 77.0405 41.1414C77.0405 39.8495 77.6326 38.3288 79.2745 38.3288C80.3376 38.3288 81.1047 39.0016 81.3739 40.159C80.6337 40.159 77.9422 40.159 77.9422 40.159C77.7268 40.159 77.5384 40.334 77.5384 40.5627C77.5384 40.7781 77.7268 40.9665 77.9422 40.9665H81.8718C81.9795 40.9665 82.0871 40.9126 82.1679 40.8184C82.2486 40.7377 82.2756 40.6166 82.2621 40.5089C82.0468 38.6921 80.8625 37.5213 79.2745 37.5213C77.4577 37.5213 76.233 38.9747 76.233 41.1414Z" fill="white"/>
<path d="M88.3328 37.8847C88.3328 37.8847 86.368 42.0835 85.8027 43.2812C85.251 42.0835 83.2996 37.8847 83.2996 37.8847C83.2054 37.6828 82.9632 37.602 82.7613 37.6962C82.5594 37.7904 82.4787 38.0192 82.5729 38.2211L85.4394 44.4117C85.5067 44.5462 85.6413 44.6404 85.8027 44.6404C85.9642 44.6404 86.0988 44.5462 86.1661 44.4117L89.0595 38.2346C89.1537 38.0327 89.073 37.7904 88.8577 37.6962C88.6558 37.602 88.427 37.6828 88.3328 37.8847Z" fill="white"/>
<path d="M89.4153 41.1414C89.4153 43.3216 90.7207 44.775 92.6452 44.775C93.7891 44.775 94.8253 44.2098 95.3636 43.6446C95.5117 43.4831 95.4982 43.2274 95.3367 43.0793C95.1752 42.9178 94.9195 42.9313 94.7715 43.0928C94.3678 43.51 93.5334 43.9676 92.6452 43.9676C90.8553 43.9676 90.2228 42.4468 90.2228 41.1414C90.2228 39.8495 90.8149 38.3288 92.4568 38.3288C93.5199 38.3288 94.287 39.0016 94.5562 40.159C93.816 40.159 91.1244 40.159 91.1244 40.159C90.9091 40.159 90.7207 40.334 90.7207 40.5627C90.7207 40.7781 90.9091 40.9665 91.1244 40.9665H95.0541C95.1618 40.9665 95.2694 40.9126 95.3502 40.8184C95.4309 40.7377 95.4578 40.6166 95.4444 40.5089C95.2291 38.6921 94.0448 37.5213 92.4568 37.5213C90.64 37.5213 89.4153 38.9747 89.4153 41.1414Z" fill="white"/>
<path d="M96.3339 34.8836V44.1963C96.3339 44.4117 96.5088 44.6001 96.7376 44.6001C96.9529 44.6001 97.1413 44.4117 97.1413 44.1963V34.8836C97.1413 34.6682 96.9529 34.4798 96.7376 34.4798C96.5088 34.4798 96.3339 34.6682 96.3339 34.8836Z" fill="white"/>
<path d="M98.051 41.1145C98.051 43.2812 99.3564 44.7346 101.281 44.7346C103.205 44.7346 104.511 43.2812 104.511 41.1145C104.511 38.9344 103.205 37.4809 101.281 37.4809C99.3564 37.4809 98.051 38.9344 98.051 41.1145ZM98.8584 41.1145C98.8584 39.8091 99.491 38.2884 101.281 38.2884C103.071 38.2884 103.703 39.8091 103.703 41.1145C103.703 42.4065 103.071 43.9272 101.281 43.9272C99.491 43.9272 98.8584 42.4065 98.8584 41.1145Z" fill="white"/>
<path d="M105.911 37.7232C105.695 37.7366 105.52 37.9116 105.52 38.1269V47.2647C105.52 47.48 105.695 47.6684 105.924 47.6684C106.139 47.6684 106.328 47.48 106.328 47.2647C106.328 47.2647 106.328 39.2573 106.328 38.5306C106.812 38.5306 107.741 38.5172 107.741 38.5172C109.248 38.5172 110.271 39.4861 110.271 40.9396C110.271 41.9623 109.948 42.7967 109.356 43.2947C108.844 43.7253 108.131 43.8868 107.31 43.7522C107.095 43.7119 106.879 43.8599 106.839 44.0752C106.799 44.304 106.947 44.5059 107.176 44.5462C108.239 44.7212 109.167 44.5059 109.881 43.9137C110.648 43.2543 111.078 42.2046 111.078 40.9396C111.078 39.042 109.706 37.7097 107.741 37.7097L105.911 37.7232Z" fill="white"/>
<path d="M111.574 41.1414C111.574 43.3216 112.88 44.775 114.804 44.775C115.948 44.775 116.984 44.2098 117.523 43.6446C117.671 43.4831 117.657 43.2274 117.496 43.0793C117.334 42.9178 117.079 42.9313 116.931 43.0928C116.527 43.51 115.692 43.9676 114.804 43.9676C113.014 43.9676 112.382 42.4468 112.382 41.1414C112.382 39.8495 112.974 38.3288 114.616 38.3288C115.679 38.3288 116.446 39.0016 116.715 40.159C115.975 40.159 113.283 40.159 113.283 40.159C113.068 40.159 112.88 40.334 112.88 40.5627C112.88 40.7781 113.068 40.9665 113.283 40.9665H117.213C117.321 40.9665 117.428 40.9126 117.509 40.8184C117.59 40.7377 117.617 40.6166 117.603 40.5089C117.388 38.6921 116.204 37.5213 114.616 37.5213C112.799 37.5213 111.574 38.9747 111.574 41.1414Z" fill="white"/>
<path d="M122.772 37.8039C122.746 37.777 122.046 37.454 121.09 37.6155C120.215 37.7635 119.543 38.3018 119.098 38.7459V38.0058C119.098 37.7904 118.924 37.602 118.695 37.602C118.479 37.602 118.291 37.7904 118.291 38.0058V44.2098C118.291 44.4386 118.479 44.6135 118.695 44.6135C118.924 44.6135 119.098 44.4386 119.098 44.2098V39.9302C119.354 39.6072 120.215 38.571 121.225 38.4095C121.911 38.2884 122.423 38.5172 122.436 38.5306C122.624 38.6248 122.867 38.5306 122.961 38.3288C123.055 38.1269 122.974 37.8981 122.772 37.8039Z" fill="white"/>
<path d="M12.2376 17.1179C6.81859 17.1179 4.09116 19.9529 4.09116 25.5873V25.9102H1.07662C0.466535 25.9102 0 26.3768 0 26.9869C0 27.5611 0.466535 28.0635 1.07662 28.0635H4.09116V43.2438C4.09116 43.8539 4.59358 44.3204 5.16777 44.3204C5.77786 44.3204 6.2444 43.8539 6.2444 43.2438V28.0635H9.43837C10.0126 28.0635 10.515 27.5611 10.515 26.9869C10.515 26.3768 10.0126 25.9102 9.43837 25.9102H6.2444V25.5873C6.2444 21.1731 8.03876 19.2711 12.2376 19.2711C12.8118 19.2711 13.3142 18.7687 13.3142 18.1945C13.3142 17.5844 12.8118 17.1179 12.2376 17.1179Z" fill="#ED1C24"/>
</svg>
